<svg width="57" height="57" viewBox="0 0 57 57" fill="none" xmlns="http://www.w3.org/2000/svg">
<mask id="path-1-inside-1_137_537" fill="white">
<path d="M57 28.5C57 44.2401 44.2401 57 28.5 57C12.7599 57 0 44.2401 0 28.5C0 12.7599 12.7599 0 28.5 0C44.2401 0 57 12.7599 57 28.5Z"/>
</mask>
<path d="M43.7071 29.7071C44.0976 29.3166 44.0976 28.6834 43.7071 28.2929L37.3431 21.9289C36.9526 21.5384 36.3195 21.5384 35.9289 21.9289C35.5384 22.3195 35.5384 22.9526 35.9289 23.3431L41.5858 29L35.9289 34.6569C35.5384 35.0474 35.5384 35.6805 35.9289 36.0711C36.3195 36.4616 36.9526 36.4616 37.3431 36.0711L43.7071 29.7071ZM14 29V30H43V29V28H14V29ZM57 28.5H55C55 43.1355 43.1355 55 28.5 55V57V59C45.3447 59 59 45.3447 59 28.5H57ZM28.5 57V55C13.8645 55 2 43.1355 2 28.5H0H-2C-2 45.3447 11.6553 59 28.5 59V57ZM0 28.5H2C2 13.8645 13.8645 2 28.5 2V0V-2C11.6553 -2 -2 11.6553 -2 28.5H0ZM28.5 0V2C43.1355 2 55 13.8645 55 28.5H57H59C59 11.6553 45.3447 -2 28.5 -2V0Z" fill="#9BB8CB" mask="url(#path-1-inside-1_137_537)"/>
</svg>
